# xmcd
#
# Track frame offsets:
#	150
#	20647
#	33920
#	48177
#	64649
#	73476
#	90081
#	105676
#	121224
#	134609
#	153033
#	167421
#
# Disc length: 2505 seconds
# Revision: 2
# Processed by: cddbd v1.5.2PL0 Copyright (c) Steve Scherf et al.
# Submitted via: dBpowerAMP V12.0
#
DISCID=9309c70c
DTITLE=Brian Houser - Son Of A Common Man
DYEAR=2001
DGENRE=Country
TTITLE0=Son Of A Common Man
TTITLE1=County Line Road
TTITLE2=Something You've Got
TTITLE3=Song Of The Workingman
TTITLE4=Never Look Back
TTITLE5=Stranger In This Town
TTITLE6=Cryin' Again
TTITLE7=Flying Machine
TTITLE8=See Your Soul
TTITLE9=Shipwrecked
TTITLE10=The Gospel Song
TTITLE11=Last Of The Outlaws
EXTD=
EXTT0=
EXTT1=
EXTT2=
EXTT3=
EXTT4=
EXTT5=
EXTT6=
EXTT7=
EXTT8=
EXTT9=
EXTT10=
EXTT11=
PLAYORDER=
